# xmcd
# 
# Track frame offsets:
#   150
#   13245
#   31271
# 
# Disc length: 698 seconds
# 
# Revision: 2
# Processed by: cddbd v1.5.2PL0 Copyright (c) Steve Scherf et al.
# Submitted via: Synapstar 1.0 
# 
DISCID=1b02b803
DTITLE=Various Artist - Jimbob
DYEAR=1900
DGENRE=Country
TTITLE0=Trini Triggs - Straight Tequila
TTITLE1=Kid Rock - All Summer Long
TTITLE2=Blues Traveler - Hook
EXTD=MediaType: Karaoke CD+G Producer: Unknown
EXTT0=
EXTT1=
EXTT2=
PLAYORDER=
